<svg fill="none" xmlns="http://www.w3.org/2000/svg" viewBox="0 0 56 53"><mask id="a" style="mask-type:alpha" maskUnits="userSpaceOnUse" x="-35" y="-28" width="153" height="56"><path transform="translate(-35 -28)" fill="#2670BF" d="M0 0h153v56H0z"/></mask><g mask="url(#a)"><path d="M28.5 15.3C23.278 2.948 5 4.264 5 20.053 5 35.842 28.5 49 28.5 49S52 35.842 52 20.052c0-15.79-18.278-17.105-23.5-4.751Z" fill="#2670BF"/></g><mask id="b" style="mask-type:alpha" maskUnits="userSpaceOnUse" x="-40" y="28" width="153" height="56"><path transform="translate(-40 28)" fill="#F8D526" d="M0 0h153v56H0z"/></mask><g mask="url(#b)"><path d="M28.5 15.3C23.278 2.948 5 4.264 5 20.053 5 35.842 28.5 49 28.5 49S52 35.842 52 20.052c0-15.79-18.278-17.105-23.5-4.751Z" fill="#F8D526"/></g></svg>